# xmcd
#
# Track frame offsets:
#	150
#	13830
#	38890
#	55872
#	70817
#	80057
#	101050
#	114507
#	130937
#	150830
#	170582
#	187702
#	204040
#	223515
#	239677
#	261115
# Disc length: 3824 seconds
# Revision: 1
# Processed by: cddbd v1.5.1PL0 Copyright (c) Steve Scherf et al.
#
# Submitted via: libkcddb 0.10
#
DISCID=d50eee10
DTITLE=John Petersen - Joy comes in the morning
DYEAR=1900
DGENRE=Country
TTITLE0=The secret place
TTITLE1=Create in me aclean heart - Give ear to my voice
TTITLE2=Joy comes in the morning
TTITLE3=Inside out
TTITLE4=Casting all my cares
TTITLE5=Learning to learn - He's all I need
TTITLE6=I'm an earthen vessel
TTITLE7=He will not let you fall
TTITLE8=Let not your heart be troubled
TTITLE9=Back to the basics
TTITLE10=In this little room
TTITLE11=I need to be still
TTITLE12=I lift my eyes up
TTITLE13=Not my will
TTITLE14=Refiner's fire
TTITLE15=This town
EXTD=
EXTT0=
EXTT1=
EXTT2=
EXTT3=
EXTT4=
EXTT5=
EXTT6=
EXTT7=
EXTT8=
EXTT9=
EXTT10=
EXTT11=
EXTT12=
EXTT13=
EXTT14=
EXTT15=
PLAYORDER=
